<svg width="163" height="141" viewBox="0 0 163 141" fill="none" xmlns="http://www.w3.org/2000/svg">
<g style="mix-blend-mode:multiply">
<path d="M113.912 117.792C107.099 117.178 101.989 111.269 101.989 104.453V99.259C101.989 95.4085 99.2813 91.966 95.4674 91.3413C90.5579 90.538 86.296 94.3069 86.296 99.0499V125.215C86.296 132.031 81.1869 137.94 74.373 138.554C66.5762 139.255 60.0106 133.133 60.0106 125.514V83.4211C60.0106 79.5706 57.3025 76.1281 53.4885 75.5034C48.5791 74.7001 44.3172 78.469 44.3172 83.212V88.5542C44.3172 95.7757 38.4222 101.651 31.1758 101.651V96.3698C35.4965 96.3698 39.0161 92.8636 39.0161 88.5542V83.5154C39.0161 76.6968 44.1252 70.7859 50.9417 70.1714C58.741 69.4676 65.3092 75.5901 65.3092 83.212V125.299C65.3092 129.147 68.0122 132.587 71.8236 133.22C76.7305 134.03 80.9975 130.259 80.9975 125.514V99.3559C80.9975 92.5372 86.1066 86.6264 92.923 86.0118C100.722 85.308 107.291 91.4305 107.291 99.0524V104.55C107.291 108.401 109.999 111.841 113.813 112.463C118.72 113.263 122.979 109.495 122.979 104.754V99.0524C122.979 92.1955 128.334 86.5422 135.078 85.9914L135.603 91.2265C131.541 91.5198 128.28 94.9342 128.28 99.0524V104.754C128.28 112.376 121.714 118.499 113.918 117.795L113.912 117.792Z" fill="#2F75A2"/>
<path d="M85.7113 139.939C52.3253 141.461 24.8369 114.072 26.3727 80.8098C27.7114 51.8089 51.2886 28.3236 80.3999 26.9926C113.794 25.4651 141.287 52.8646 139.744 86.1316C138.397 115.13 114.82 138.61 85.7113 139.939ZM86.4177 32.3195C55.4046 30.3458 29.7335 55.922 31.7198 86.8176C33.3606 112.353 54.0659 132.98 79.6986 134.612C110.712 136.585 136.383 111.007 134.399 80.1111C132.758 54.5757 112.053 33.9514 86.4203 32.3195H86.4177Z" fill="#2F75A2"/>
<path d="M10.3312 70.2657C13.3491 70.4722 15.6681 71.3979 17.2987 73.0401C18.9241 74.6771 19.6433 76.8523 19.4565 79.5629C19.2696 82.3347 18.2713 84.4104 16.4642 85.8001C14.6622 87.1873 12.2151 87.7738 9.12047 87.5647C6.04629 87.3531 3.71698 86.4325 2.1223 84.8082C0.537854 83.1839 -0.160939 80.9832 0.0310371 78.2038C0.217894 75.5008 1.22129 73.4557 3.0489 72.0558C4.87652 70.6558 7.29798 70.0591 10.3312 70.2682V70.2657ZM9.30221 85.2468C11.8593 85.4227 13.8354 85.0147 15.2279 84.0203C16.6255 83.0309 17.3908 81.4983 17.5316 79.4303C17.6775 77.347 17.122 75.7277 15.8806 74.5751C14.6392 73.4226 12.7399 72.7545 10.1725 72.5785C7.63586 72.4051 5.67514 72.8029 4.28779 73.7694C2.90044 74.7383 2.1351 76.2581 1.99431 78.3364C1.84841 80.4171 2.40386 82.0491 3.65043 83.2247C4.897 84.3977 6.78092 85.0708 9.30221 85.2468Z" fill="#2F75A2"/>
<path d="M26.5033 51.9469L26.0272 52.9822C25.9018 53.255 25.6484 53.4437 25.3514 53.4896L7.08041 56.1951L7.03946 56.2895C8.78772 56.9346 10.367 57.5823 11.7851 58.2249L20.7491 62.3151C21.1945 62.5191 21.3916 63.0444 21.1868 63.4881L21.0793 63.7252C20.8745 64.1689 20.3473 64.3627 19.9019 64.1613L4.32107 57.0494C3.87569 56.8454 3.68115 56.3226 3.88337 55.8789L4.34667 54.8691C4.47209 54.5963 4.7255 54.4051 5.02243 54.3617L23.2269 51.6485L23.2679 51.5542C23.0503 51.4751 22.3515 51.1997 21.1766 50.728C20.0017 50.2613 19.1724 49.9018 18.686 49.6621L9.62474 45.5311C9.17935 45.3271 8.98226 44.8018 9.18703 44.3582L9.30478 44.1006C9.50955 43.6569 10.0343 43.4631 10.4797 43.6646L26.0656 50.7713C26.511 50.9753 26.7081 51.4981 26.5033 51.9443V51.9469Z" fill="#2F75A2"/>
<path d="M34.1286 27.1864C36.3478 29.3692 37.4511 31.6438 37.4357 34C37.4255 36.3587 36.3018 38.6639 34.062 40.9232L31.0058 44.0112C30.6628 44.358 30.0996 44.3631 29.7515 44.0188L17.5469 32.0237C17.1988 31.6795 17.1937 31.1211 17.5393 30.7743L20.9897 27.2935C23.0554 25.2077 25.2439 24.1571 27.5476 24.1418C29.8565 24.1265 32.045 25.1439 34.1311 27.189L34.1286 27.1864ZM32.539 28.8898C30.7856 27.166 29.0348 26.3042 27.2763 26.3067C25.5178 26.3093 23.7721 27.1788 22.0597 28.9051L20.4368 30.5448C20.0938 30.8916 20.0964 31.4526 20.4445 31.7943L29.9409 41.1246C30.2891 41.4663 30.8522 41.4638 31.1952 41.117L32.4571 39.8445C34.295 37.9856 35.2216 36.1369 35.2267 34.2983C35.242 32.4598 34.3462 30.657 32.5416 28.8873L32.539 28.8898Z" fill="#2F75A2"/>
<path d="M56.0729 24.0272L52.1617 20.5389C51.8903 20.2966 51.4961 20.2431 51.1685 20.4088L45.4886 23.2699C45.1609 23.4356 44.9689 23.7824 45.0048 24.1471L45.5218 29.3388C45.5577 29.7035 45.3657 30.0503 45.0381 30.216L44.7565 30.3563C44.1985 30.6368 43.5304 30.2696 43.4715 29.6499L41.7642 11.285C41.7309 10.9229 41.9229 10.5787 42.248 10.4155L42.8137 10.1299C43.1388 9.96411 43.533 10.0177 43.8068 10.2599L57.5882 22.5431C58.054 22.9588 57.9542 23.7085 57.3962 23.9915L57.0634 24.1598C56.7384 24.3256 56.3416 24.272 56.0703 24.0298L56.0729 24.0272ZM49.0644 19.2562C49.6173 18.9783 49.7197 18.2362 49.2641 17.818L45.6089 14.4597C45.6089 14.4597 45.5833 14.4368 45.5705 14.4266C44.9536 13.8707 43.986 14.3705 44.0884 15.1916C44.0884 15.2018 44.091 15.212 44.0935 15.2222L44.6106 20.1589C44.6746 20.776 45.3401 21.1356 45.893 20.8551L49.0644 19.2562Z" fill="#2F75A2"/>
<path d="M81.0554 19.2691C80.6663 19.2462 80.3361 18.9733 80.244 18.5959L76.7295 4.2064L76.6169 4.19875C76.6015 7.21282 76.5657 9.2171 76.5043 10.2218L76.0384 18.091C76.0103 18.5781 75.5905 18.9504 75.099 18.9223L73.2842 18.8152C72.7953 18.7872 72.4216 18.3664 72.4497 17.8794L73.4685 0.832779C73.4966 0.345733 73.9164 -0.0265633 74.4053 0.00148647L78.3217 0.228434C78.7107 0.251384 79.0384 0.524232 79.1331 0.899078L82.5886 14.9163L82.6654 14.9214L88.0254 1.40652C88.1662 1.05208 88.5194 0.825129 88.9034 0.848079L92.8299 1.07758C93.3188 1.10563 93.6926 1.52382 93.6644 2.01342L92.6456 19.06C92.6175 19.5471 92.1977 19.9194 91.7088 19.8913L89.743 19.7766C89.2541 19.7485 88.8803 19.3278 88.9085 18.8407L89.3897 10.821C89.4153 10.3977 89.446 9.91324 89.4921 9.365C89.5382 8.81931 89.6841 7.36327 89.9273 4.99944L89.8146 4.99434L84.3062 18.8484C84.1654 19.2028 83.8122 19.4272 83.4282 19.4043L81.0554 19.2666V19.2691Z" fill="#2F75A2"/>
<path d="M109.882 25.5499L110.366 22.2018C110.422 21.8167 110.218 21.4393 109.864 21.2761L104.809 18.9148C104.456 18.7491 104.033 18.8332 103.772 19.1239L101.507 21.6306C101.246 21.9187 100.824 22.0054 100.47 21.8397L98.287 20.8197C97.7341 20.5621 97.601 19.8354 98.031 19.3993L110.817 6.43016C111.08 6.16241 111.485 6.09101 111.825 6.24911L115.127 7.79184C115.468 7.94994 115.67 8.30694 115.634 8.67924L113.822 26.7841C113.76 27.391 113.118 27.7556 112.562 27.4981L110.382 26.4806C110.028 26.3149 109.823 25.94 109.88 25.5524L109.882 25.5499ZM109.928 17.6016C110.471 17.854 111.103 17.5047 111.185 16.9157C111.666 13.4426 111.943 11.4587 112.022 10.964C112.099 10.4132 112.178 9.98227 112.25 9.67373C111.587 10.4668 109.959 12.29 107.369 15.1358C106.967 15.5769 107.105 16.2807 107.645 16.5332L109.928 17.5991V17.6016Z" fill="#2F75A2"/>
<path d="M125.041 28.4899L121.26 32.4474C120.922 32.8019 120.359 32.8146 120.006 32.478L118.388 30.9429C118.032 30.6064 118.02 30.0479 118.358 29.6935L130.173 17.3235C130.511 16.9691 131.072 16.9563 131.427 17.2929L134.78 20.4702C136.644 22.2348 137.699 23.8821 137.947 25.4019C138.195 26.9242 137.658 28.3726 136.342 29.7521C135.577 30.5528 134.67 31.0577 133.629 31.2617C132.866 31.4121 132.07 31.3943 131.246 31.2107C130.746 31.0985 130.255 31.4172 130.168 31.917C129.625 35.0586 129.221 37.4403 128.952 39.0621C128.837 39.7633 127.979 40.0464 127.465 39.5568L125.822 37.9962C125.599 37.7845 125.504 37.476 125.566 37.1776L127.096 29.7955C127.158 29.4971 127.06 29.186 126.84 28.9769L126.298 28.4618C125.942 28.1252 125.381 28.138 125.043 28.4924L125.041 28.4899ZM128.512 24.8562C128.174 25.2106 128.189 25.769 128.543 26.1056L128.837 26.3836C129.753 27.2531 130.58 27.7453 131.307 27.8524C132.037 27.962 132.715 27.6892 133.342 27.0389C133.964 26.3912 134.176 25.7206 133.995 25.0219C133.803 24.3258 133.25 23.5327 132.308 22.6428L132.067 22.4158C131.711 22.0792 131.151 22.0945 130.813 22.449L128.514 24.8587L128.512 24.8562Z" fill="#2F75A2"/>
<path d="M132.405 44.1927L146.944 35.1505C147.359 34.893 147.907 35.0179 148.168 35.431L149.353 37.3205C149.614 37.7336 149.486 38.2793 149.071 38.5394L134.532 47.5842C134.118 47.8417 133.57 47.7168 133.309 47.3037L132.124 45.4142C131.862 45.0011 131.99 44.4554 132.405 44.1953V44.1927Z" fill="#2F75A2"/>
<path d="M142.513 69.2159L141.51 65.6689C141.423 65.3654 141.51 65.0365 141.73 64.8121L152.913 53.4112L152.877 53.3041C150.492 54.1455 148.779 54.7116 147.737 55.0023L140.03 57.1724C139.559 57.305 139.068 57.0321 138.935 56.5604L138.443 54.8238C138.31 54.3546 138.584 53.8651 139.058 53.7325L155.552 49.094C156.023 48.9614 156.515 49.2343 156.648 49.7035L157.643 53.2123C157.731 53.5157 157.646 53.8421 157.426 54.069L146.371 65.419L146.391 65.5057C148.726 64.7152 150.382 64.1797 151.365 63.9069L159.123 61.7241C159.594 61.5915 160.085 61.8643 160.219 62.3361L160.715 64.093C160.848 64.5622 160.574 65.0518 160.103 65.1844L143.609 69.8253C143.138 69.9579 142.646 69.6851 142.513 69.2134V69.2159Z" fill="#2F75A2"/>
<path d="M143.796 88.0576L147.105 87.3181C147.487 87.234 147.766 86.9101 147.796 86.5225L148.216 80.9789C148.244 80.5913 148.017 80.2292 147.653 80.0889L144.487 78.865C144.123 78.7247 143.893 78.3626 143.924 77.975L144.105 75.578C144.151 74.9711 144.786 74.5912 145.347 74.836L162.072 82.1391C162.417 82.2896 162.63 82.6415 162.602 83.0163L162.328 86.6398C162.3 87.0147 162.038 87.3283 161.675 87.4278L144.054 92.1733C143.465 92.3314 142.895 91.8622 142.938 91.2553L143.112 88.8609C143.14 88.4707 143.422 88.1469 143.803 88.0627L143.796 88.0576ZM151.265 85.2807C151.219 85.8748 151.772 86.3415 152.355 86.2063C155.788 85.4184 157.748 84.9721 158.242 84.865C158.785 84.7452 159.215 84.6662 159.53 84.6203C158.547 84.2888 156.261 83.4218 152.667 82.0167C152.112 81.8 151.498 82.1774 151.454 82.7715L151.262 85.2807H151.265Z" fill="#2F75A2"/>
<path d="M52.2064 53.6973C59.0203 54.3118 64.1294 60.2201 64.1294 67.0362V70.7005C64.1294 74.551 66.8375 77.9934 70.6515 78.6182C75.5609 79.4214 79.8228 75.6526 79.8228 70.9096V44.7443C79.8228 37.9282 84.9319 32.0199 91.7458 31.4054C99.5426 30.7041 106.108 36.8266 106.108 44.446V86.5384C106.108 90.3889 108.816 93.8313 112.63 94.4561C117.54 95.2593 121.802 91.4905 121.802 86.7475V81.4053C121.802 74.1838 127.697 68.3086 134.943 68.3086V73.5896C130.622 73.5896 127.103 77.0959 127.103 81.4053V86.4441C127.103 93.2627 121.994 99.1735 115.177 99.7881C107.378 100.492 100.81 94.3694 100.81 86.7475V44.6627C100.81 40.8148 98.1066 37.3749 94.2953 36.7425C89.3883 35.9316 85.1214 39.703 85.1214 44.4485V70.6062C85.1214 77.4248 80.0122 83.3356 73.1958 83.9502C65.3964 84.654 58.8283 78.5315 58.8283 70.9096V66.9418C58.8283 63.0914 56.1201 59.6515 52.3062 59.0293C47.3993 58.2286 43.14 61.9974 43.14 66.7378V70.9096C43.14 77.7665 37.7851 83.4198 31.0404 83.9706L30.5156 78.7355C34.5778 78.4422 37.8389 75.0278 37.8389 70.9096V66.7378C37.8389 59.116 44.4045 52.9935 52.2013 53.6973H52.2064Z" stroke="#2F75A2" stroke-miterlimit="10"/>
<path d="M80.4076 26.9932C113.794 25.4708 141.282 52.8601 139.746 86.122C138.407 115.123 114.83 138.608 85.7189 139.939C52.3253 141.467 24.8317 114.067 26.3752 80.8002C27.7216 51.8019 51.2989 28.3217 80.4076 26.9932ZM79.7011 134.612C110.714 136.586 136.385 111.01 134.399 80.1143C132.758 54.5788 112.053 33.952 86.4203 32.3201C55.4071 30.3464 29.7361 55.9252 31.7198 86.8207C33.3606 112.356 54.0659 132.98 79.6985 134.612H79.7011Z" stroke="#2F75A2" stroke-miterlimit="10"/>
</g>
</svg>
